<mxfile host="app.diagrams.net" modified="2023-07-17T11:24:54.715Z" agent="Mozilla/5.0 (X11; Linux x86_64) AppleWebKit/537.36 (KHTML, like Gecko) Chrome/113.0.0.0 Safari/537.36" version="21.6.2" etag="z_ao6wzs5nsZLP-l2dIu" type="github">
  <diagram name="Страница 1" id="ArhTz1QJqoJ26JUiT9pj">
    <mxGraphModel>
      <root>
        <mxCell id="0" />
        <mxCell id="1" parent="0" />
      </root>
    </mxGraphModel>
  </diagram>
</mxfile>
